<svg width="41" height="42" viewBox="0 0 41 42" fill="none" xmlns="http://www.w3.org/2000/svg">
<g clip-path="url(#clip0_165_49)">
<path d="M4.11149 37.4458L0.782227 0.426636L40.5423 0.501029L37.0219 37.4458L20.8123 41.7162L4.11149 37.4458Z" fill="#1B73BA"/>
<path d="M20.8124 38.141V3.9523L37.1858 4.0019L34.266 34.5906L20.8124 38.141Z" fill="#1C88C7"/>
<path d="M33.1197 8.3222H7.93201L8.61434 12.791H20.5667L8.80545 17.3844L9.48746 21.7045H26.8161L26.1883 27.7376L20.3211 28.7806L15 27.5392L14.5905 24.1128H9.70582L10.3606 31.2388L20.8396 33.8953L30.8822 30.9905L32.1648 17.0615H21.5489L33.1194 12.6918L33.1197 8.3222Z" fill="white"/>
</g>
<defs>
<clipPath id="clip0_165_49">
<rect width="39.7601" height="41.4286" fill="white" transform="translate(0.782227 0.357147)"/>
</clipPath>
</defs>
</svg>
