<svg width="40" height="42" viewBox="0 0 40 42" fill="none" xmlns="http://www.w3.org/2000/svg">
<g clip-path="url(#clip0_165_55)">
<path d="M20.0002 0.357147C8.95583 0.357147 0 9.85368 0 21.5687C0 30.9406 5.73066 38.8916 13.6773 41.6964C14.6769 41.8927 15.0438 41.2362 15.0438 40.676C15.0438 40.1702 15.0253 38.4993 15.0167 36.7268C9.45262 38.01 8.27853 34.2241 8.27853 34.2241C7.36874 31.7724 6.05788 31.1204 6.05788 31.1204C4.24326 29.8039 6.19466 29.831 6.19466 29.831C8.20302 29.9806 9.26053 32.0168 9.26053 32.0168C11.0443 35.2596 13.9393 34.3221 15.0806 33.7801C15.2601 32.4092 15.7784 31.4734 16.3504 30.9438C11.9081 30.4074 7.23825 28.5886 7.23825 20.4609C7.23825 18.1451 8.01954 16.2529 9.29894 14.7674C9.09129 14.2331 8.40671 12.0757 9.49269 9.15398C9.49269 9.15398 11.1722 8.5839 14.9942 11.3283C16.5895 10.8583 18.3005 10.6226 20.0002 10.6145C21.6999 10.6226 23.4121 10.8583 25.0105 11.3283C28.8278 8.5839 30.505 9.15398 30.505 9.15398C31.5936 12.0757 30.9087 14.2331 30.7011 14.7674C31.9834 16.2529 32.7594 18.1451 32.7594 20.4609C32.7594 28.6079 28.0806 30.4018 23.6271 30.9269C24.3444 31.5851 24.9836 32.876 24.9836 34.855C24.9836 37.6931 24.9605 39.9773 24.9605 40.676C24.9605 41.2405 25.3205 41.9019 26.3343 41.6936C34.2766 38.8856 40 30.9374 40 21.5687C40 9.85368 31.0455 0.357147 20.0002 0.357147ZM7.49071 30.5735C7.44666 30.6789 7.29034 30.7105 7.14793 30.6382C7.00286 30.569 6.92139 30.4253 6.96842 30.3196C7.01147 30.211 7.16813 30.1808 7.31286 30.2535C7.45826 30.3227 7.54105 30.4678 7.49071 30.5735ZM8.4745 31.5045C8.37911 31.5983 8.19265 31.5547 8.06614 31.4065C7.93531 31.2586 7.91081 31.0609 8.00751 30.9657C8.10588 30.8719 8.28671 30.9158 8.41786 31.0637C8.54869 31.2133 8.57419 31.4097 8.4745 31.5045ZM9.14941 32.6957C9.02687 32.786 8.8265 32.7013 8.70263 32.5127C8.58009 32.3241 8.58009 32.0978 8.70528 32.0072C8.82948 31.9166 9.02687 31.9981 9.15239 32.1853C9.2746 32.3771 9.2746 32.6033 9.14941 32.6957ZM10.2908 34.0752C10.1812 34.2034 9.94772 34.169 9.77682 33.9941C9.60195 33.823 9.55327 33.5803 9.66322 33.4521C9.77417 33.3235 10.009 33.3597 10.1812 33.5332C10.3548 33.7039 10.4077 33.9484 10.2908 34.0752ZM11.766 34.5409C11.7177 34.7071 11.4928 34.7826 11.2662 34.712C11.04 34.6393 10.892 34.4447 10.9377 34.2768C10.9847 34.1096 11.2106 34.0309 11.4388 34.1064C11.6647 34.1788 11.813 34.372 11.766 34.5409ZM13.4448 34.7385C13.4505 34.9134 13.2584 35.0585 13.0206 35.0616C12.7815 35.0673 12.588 34.9257 12.5854 34.7536C12.5854 34.5769 12.7732 34.4332 13.0123 34.429C13.2501 34.4241 13.4448 34.5646 13.4448 34.7385ZM15.0941 34.6714C15.1226 34.8422 14.9573 35.0174 14.7212 35.0641C14.489 35.1091 14.274 35.0037 14.2446 34.8344C14.2158 34.6595 14.384 34.4842 14.6158 34.4389C14.8523 34.3954 15.0639 34.4979 15.0941 34.6714Z" fill="#161614"/>
</g>
<defs>
<clipPath id="clip0_165_55">
<rect width="40" height="41.4286" fill="white" transform="translate(0 0.357147)"/>
</clipPath>
</defs>
</svg>
