<svg width="30" height="30" viewBox="0 0 40 42" fill="none" xmlns="http://www.w3.org/2000/svg">
<g clip-path="url(#clip0_165_66)">
<path d="M0 0.357147H40V41.7857H0V0.357147Z" fill="#F0DB4F"/>
<path d="M36.7262 31.9051C36.4335 30.0148 35.2433 28.4278 31.7186 26.9471C30.4943 26.3642 29.1293 25.9468 28.7224 24.9859C28.5779 24.4267 28.5589 24.1116 28.6502 23.773C28.9125 22.6742 30.1787 22.3316 31.1825 22.6467C31.8289 22.8711 32.4411 23.3871 32.8099 24.2101C34.5361 23.0523 34.5323 23.0602 35.7376 22.2647C35.2966 21.5559 35.0608 21.229 34.7719 20.9258C33.7338 19.7247 32.3194 19.1064 30.057 19.1536C29.6654 19.2048 29.27 19.2599 28.8783 19.3112C27.7491 19.6065 26.673 20.2209 26.0418 21.0439C24.1483 23.2689 24.6882 27.1637 26.9924 28.7665C29.2624 30.5307 32.597 30.9324 33.0228 32.5825C33.4373 34.6027 31.5894 35.2564 29.7528 35.0241C28.3992 34.7327 27.6464 34.0199 26.8327 32.7243C25.3346 33.6221 25.3346 33.6221 23.7947 34.5397C24.1597 35.3667 24.5437 35.7408 25.1559 36.4576C28.0533 39.5017 35.3042 39.352 36.6046 34.7445C36.6578 34.5869 37.0076 33.5315 36.7262 31.9051ZM21.7452 19.3978H18.0038C18.0038 22.7451 17.9886 26.0689 17.9886 29.4162C17.9886 31.5467 18.0951 33.5 17.7605 34.0986C17.213 35.2761 15.7947 35.1304 15.1483 34.9019C14.4905 34.5672 14.1559 34.0907 13.7681 33.4173C13.6616 33.2244 13.5818 33.0747 13.5551 33.0629C12.54 33.7048 11.5285 34.3506 10.5133 34.9925C11.019 36.0676 11.7643 37.001 12.7186 37.6074C14.1445 38.4935 16.0608 38.7652 18.0647 38.2887C19.3689 37.8949 20.4943 37.0797 21.0836 35.8392C21.9354 34.2128 21.7528 32.2438 21.7452 30.066C21.7643 26.5139 21.7452 22.9617 21.7452 19.3978Z" fill="#323330"/>
</g>
<defs>
<clipPath id="clip0_165_66">
<rect width="40" height="41.4286" fill="white" transform="translate(0 0.357147)"/>
</clipPath>
</defs>
</svg>
