<svg width="40" height="40" viewBox="0 0 40 40" fill="none" xmlns="http://www.w3.org/2000/svg">
<g clip-path="url(#clip0_165_60)">
<path d="M40 20.0046C40 17.0291 36.6816 14.2092 31.594 12.4605C32.768 6.63767 32.2462 2.00504 29.947 0.521858C29.417 0.173953 28.7974 0.00915527 28.1207 0.00915527V2.05081C28.4957 2.05081 28.7974 2.13321 29.0501 2.28885C30.159 3.00298 30.64 5.72213 30.265 9.2195C30.1753 10.0801 30.0285 10.9865 29.8492 11.9112C28.2511 11.4717 26.5063 11.133 24.6718 10.9133C23.5711 9.2195 22.4297 7.68139 21.2801 6.33555C23.938 3.56146 26.4329 2.04166 28.1288 2.04166V0C25.8867 0 22.9515 1.79446 19.9837 4.9073C17.0159 1.81277 14.0807 0.0366218 11.8386 0.0366218V2.07828C13.5263 2.07828 16.0294 3.58892 18.6873 6.3447C17.5459 7.69055 16.4044 9.2195 15.32 10.9133C13.4774 11.133 11.7326 11.4717 10.1345 11.9203C9.947 11.0048 9.8084 10.1167 9.71056 9.26528C9.32735 5.76791 9.80025 3.04875 10.9009 2.32547C11.1455 2.16068 11.4635 2.08743 11.8386 2.08743V0.0457771C11.1537 0.0457771 10.534 0.210574 9.99592 0.55848C7.70485 2.04166 7.19119 6.66514 8.37342 12.4697C3.30208 14.2275 0 17.0382 0 20.0046C0 22.9801 3.31839 25.8 8.40603 27.5486C7.23196 33.3715 7.75377 38.0041 10.053 39.4873C10.583 39.8352 11.2026 40 11.8875 40C14.1296 40 17.0648 38.2055 20.0326 35.0927C23.0004 38.1872 25.9356 39.9634 28.1777 39.9634C28.8626 39.9634 29.4823 39.7986 30.0204 39.4507C32.3115 37.9675 32.8251 33.344 31.6429 27.5395C36.6979 25.7908 40 22.9709 40 20.0046ZM29.3844 13.8979C29.0828 15.079 28.7077 16.2966 28.2837 17.5143C27.9494 16.7819 27.5989 16.0494 27.2157 15.317C26.8406 14.5846 26.4411 13.8705 26.0416 13.1746C27.1994 13.3669 28.3163 13.6049 29.3844 13.8979ZM25.6502 23.6484C25.0143 24.8844 24.362 26.0563 23.6853 27.1458C22.4704 27.2648 21.2393 27.3289 20 27.3289C18.7689 27.3289 17.5377 27.2648 16.331 27.155C15.6543 26.0655 14.9939 24.9027 14.3579 23.6759C13.7383 22.4765 13.1757 21.2589 12.662 20.032C13.1676 18.8052 13.7383 17.5784 14.3498 16.379C14.9857 15.1431 15.638 13.9712 16.3147 12.8817C17.5296 12.7626 18.7607 12.6986 20 12.6986C21.2311 12.6986 22.4623 12.7626 23.669 12.8725C24.3457 13.962 25.0061 15.1247 25.6421 16.3516C26.2617 17.5509 26.8243 18.7686 27.338 19.9954C26.8243 21.2222 26.2617 22.4491 25.6502 23.6484ZM28.2837 22.4582C28.724 23.6851 29.0991 24.9119 29.4089 26.1021C28.3408 26.3951 27.2157 26.6423 26.0497 26.8345C26.4492 26.1295 26.8488 25.4063 27.2238 24.6647C27.5989 23.9322 27.9494 23.1907 28.2837 22.4582ZM20.0163 32.2271C19.2581 31.3481 18.4998 30.3685 17.7497 29.2973C18.4835 29.3339 19.2336 29.3614 19.9918 29.3614C20.7583 29.3614 21.5165 29.3431 22.2585 29.2973C21.5247 30.3685 20.7664 31.3481 20.0163 32.2271ZM13.9503 26.8345C12.7925 26.6423 11.6755 26.4042 10.6074 26.1112C10.9091 24.9302 11.2841 23.7125 11.7081 22.4949C12.0424 23.2273 12.393 23.9597 12.7762 24.6922C13.1594 25.4246 13.5508 26.1387 13.9503 26.8345ZM19.9755 7.7821C20.7338 8.66102 21.4921 9.64065 22.2422 10.7118C21.5084 10.6752 20.7583 10.6477 20 10.6477C19.2336 10.6477 18.4753 10.6661 17.7334 10.7118C18.4672 9.64065 19.2254 8.66102 19.9755 7.7821ZM13.9421 13.1746C13.5426 13.8796 13.1431 14.6029 12.768 15.3445C12.393 16.0769 12.0424 16.8093 11.7081 17.5418C11.2678 16.3149 10.8928 15.0881 10.583 13.8979C11.651 13.6141 12.7762 13.3669 13.9421 13.1746ZM6.56339 24.6372C3.67713 23.2547 1.81003 21.442 1.81003 20.0046C1.81003 18.5672 3.67713 16.7452 6.56339 15.3719C7.26458 15.0332 8.03098 14.7311 8.82185 14.4472C9.28659 16.2417 9.89808 18.1094 10.6563 20.0229C9.90624 21.9272 9.3029 23.7858 8.84631 25.5711C8.03914 25.2872 7.27273 24.976 6.56339 24.6372ZM10.9499 37.7203C9.84101 37.0062 9.35997 34.287 9.73502 30.7897C9.82471 29.929 9.97147 29.0227 10.1508 28.098C11.7489 28.5374 13.4937 28.8762 15.3282 29.0959C16.4289 30.7897 17.5703 32.3278 18.7199 33.6736C16.062 36.4477 13.5671 37.9675 11.8712 37.9675C11.5043 37.9583 11.1945 37.8759 10.9499 37.7203ZM30.2894 30.7439C30.6726 34.2412 30.1998 36.9604 29.0991 37.6837C28.8545 37.8485 28.5365 37.9217 28.1614 37.9217C26.4737 37.9217 23.9707 36.4111 21.3127 33.6553C22.4541 32.3095 23.5956 30.7805 24.68 29.0867C26.5226 28.867 28.2674 28.5283 29.8655 28.0797C30.053 29.0043 30.1998 29.8924 30.2894 30.7439ZM33.4285 24.6372C32.7273 24.976 31.9609 25.2781 31.17 25.5619C30.7053 23.7675 30.0938 21.8997 29.3355 19.9863C30.0856 18.0819 30.689 16.2234 31.1455 14.4381C31.9527 14.7219 32.7191 15.0332 33.4366 15.3719C36.3229 16.7544 38.19 18.5672 38.19 20.0046C38.1818 21.442 36.3147 23.2639 33.4285 24.6372Z" fill="#146C94"/>
<path d="M19.726 24.368C21.7839 24.368 23.4521 22.4948 23.4521 20.184C23.4521 17.8733 21.7839 16 19.726 16C17.6682 16 16 17.8733 16 20.184C16 22.4948 17.6682 24.368 19.726 24.368Z" fill="#146C94"/>
</g>
<defs>
<clipPath id="clip0_165_60">
<rect width="40" height="40" fill="white"/>
</clipPath>
</defs>
</svg>
