<svg width="94" height="89" viewBox="0 0 94 89" fill="none" xmlns="http://www.w3.org/2000/svg">
<g id="shape style">
<path id="Rectangle 24" d="M30.2132 67.6396C18.4975 55.9239 18.4975 36.9289 30.2132 25.2132V25.2132C41.9289 13.4975 60.9239 13.4975 72.6396 25.2132V25.2132C84.3553 36.9289 84.3553 55.9239 72.6396 67.6396V67.6396C60.9239 79.3553 41.9289 79.3553 30.2132 67.6396V67.6396Z" fill="#AFD3E2"/>
<path id="Rectangle 24_2" d="M7.07107 21.2132C3.16582 17.308 3.16583 10.9763 7.07107 7.07108V7.07108C10.9763 3.16584 17.308 3.16584 21.2132 7.07108V7.07108C25.1184 10.9763 25.1184 17.308 21.2132 21.2132V21.2132C17.308 25.1185 10.9763 25.1185 7.07107 21.2132V21.2132Z" fill="#19A7CE"/>
</g>
</svg>
