<svg width="30" height="32" viewBox="0 0 40 42" fill="none" xmlns="http://www.w3.org/2000/svg">
<g clip-path="url(#clip0_165_42)">
<path d="M0.182373 21.0714V4.35715C0.182373 2.14801 1.97323 0.357147 4.18237 0.357147H35.9424C38.1516 0.357147 39.9424 2.14801 39.9424 4.35715V37.7857C39.9424 39.9949 38.1516 41.7857 35.9424 41.7857H0.182373" fill="#007ACC"/>
<path d="M8.89978 21.1439V22.8322H14.0686V38.1607H17.7365V22.8322H22.9053V21.175C22.9053 20.2429 22.9053 19.4868 22.8655 19.4661C22.8655 19.435 19.7145 19.4247 15.8876 19.4247L8.9296 19.4557V21.1543L8.89978 21.1439ZM32.1296 19.4143C33.1435 19.6629 33.9188 20.1393 34.6146 20.8954C34.9824 21.3097 35.5291 22.0347 35.5688 22.2211C35.5688 22.2832 33.8492 23.495 32.8055 24.1682C32.7658 24.1993 32.6067 24.0232 32.4477 23.7539C31.9308 22.9875 31.404 22.6561 30.579 22.5939C29.3862 22.5111 28.591 23.1636 28.591 24.2511C28.591 24.5825 28.6506 24.7689 28.7699 25.0382C29.0383 25.6079 29.5353 25.9497 31.076 26.6539C33.9188 27.9279 35.1514 28.7668 35.8969 29.9682C36.7418 31.3147 36.9306 33.4275 36.364 35.0122C35.7279 36.7418 34.1772 37.9122 31.9606 38.2954C31.2648 38.4197 29.6744 38.3989 28.9289 38.2643C27.3385 37.9536 25.8177 37.125 24.8833 36.0582C24.5155 35.6439 23.8098 34.5357 23.8496 34.4632L24.2273 34.2147L25.7183 33.3136L26.8415 32.63L27.1 32.9925C27.428 33.5311 28.1635 34.2561 28.591 34.5047C29.8832 35.1986 31.6127 35.1054 32.4676 34.2975C32.8353 33.9454 32.9944 33.5725 32.9944 33.0547C32.9944 32.5782 32.9248 32.3607 32.6962 31.9982C32.3781 31.5425 31.7419 31.1697 29.9527 30.3411C27.8952 29.4297 27.0204 28.8497 26.2053 27.9589C25.7382 27.4204 25.3107 26.5814 25.1119 25.8875C24.9628 25.2868 24.9131 23.8161 25.0523 23.2257C25.4797 21.1543 26.9807 19.7043 29.1277 19.29C29.8235 19.145 31.4636 19.2072 32.1495 19.3936L32.1296 19.4143Z" fill="white"/>
</g>
<defs>
<clipPath id="clip0_165_42">
<rect width="39.7601" height="41.4286" fill="white" transform="translate(0.182373 0.357147)"/>
</clipPath>
</defs>
</svg>
